<mxfile host="65bd71144e">
    <diagram name="CLI OpenAPI Parser" id="0">
        <mxGraphModel dx="1210" dy="1745" grid="1" gridSize="10" guides="1" tooltips="1" connect="1" arrows="1" fold="1" page="1" pageScale="1" pageWidth="827" pageHeight="1169" math="0" shadow="0">
            <root>
                <mxCell id="0"/>
                <mxCell id="1" parent="0"/>
                <mxCell id="2" value="User runs CLI: swagger_guard parse --file spec.yaml" style="rounded=1;whiteSpace=wrap;html=1;fillColor=#f9f;strokeColor=#333;strokeWidth=2;" parent="1" vertex="1">
                    <mxGeometry x="-20" y="-30" width="260" height="60" as="geometry"/>
                </mxCell>
                <mxCell id="3" value="Read file (YAML/JSON)" style="rounded=1;whiteSpace=wrap;html=1;" parent="1" vertex="1">
                    <mxGeometry x="20" y="90" width="180" height="60" as="geometry"/>
                </mxCell>
                <mxCell id="4" value="Parse with kin-openapi Loader" style="rounded=1;whiteSpace=wrap;html=1;" parent="1" vertex="1">
                    <mxGeometry x="20" y="180" width="220" height="60" as="geometry"/>
                </mxCell>
                <mxCell id="5" value="OpenAPI Structure" style="rounded=1;whiteSpace=wrap;html=1;fillColor=#bbf;strokeColor=#333;strokeWidth=2;" parent="1" vertex="1">
                    <mxGeometry x="20" y="270" width="200" height="60" as="geometry"/>
                </mxCell>
                <mxCell id="23" value="OWASP Top 10 Checks" style="rounded=1;whiteSpace=wrap;html=1;fillColor=#ffb366;strokeColor=#333;strokeWidth=2;" parent="1" vertex="1">
                    <mxGeometry x="320" y="270" width="220" height="60" as="geometry"/>
                </mxCell>
                <mxCell id="24" value="- No Authentication\n- GET for create/delete\n- No HTTPS\n- Query param w/o type\n- Insecure Methods" style="rounded=1;whiteSpace=wrap;html=1;fillColor=#fff2cc;strokeColor=#333;strokeWidth=1;" parent="1" vertex="1">
                    <mxGeometry x="320" y="200" width="220" height="80" as="geometry"/>
                </mxCell>
                <mxCell id="27" value="Report Generation" style="rounded=1;whiteSpace=wrap;html=1;fillColor=#cce5ff;strokeColor=#333;strokeWidth=2;" parent="1" vertex="1">
                    <mxGeometry x="640" y="270" width="220" height="60" as="geometry"/>
                </mxCell>
                <mxCell id="28" value="CLI (colors)" style="rounded=1;whiteSpace=wrap;html=1;fillColor=#d4edda;strokeColor=#333;strokeWidth=1;" parent="1" vertex="1">
                    <mxGeometry x="980" y="280" width="120" height="40" as="geometry"/>
                </mxCell>
                <mxCell id="29" value="JSON" style="rounded=1;whiteSpace=wrap;html=1;fillColor=#fff3cd;strokeColor=#333;strokeWidth=1;" parent="1" vertex="1">
                    <mxGeometry x="960" y="350" width="120" height="40" as="geometry"/>
                </mxCell>
                <mxCell id="30" value="Markdown" style="rounded=1;whiteSpace=wrap;html=1;fillColor=#f8d7da;strokeColor=#333;strokeWidth=1;" parent="1" vertex="1">
                    <mxGeometry x="910" y="460" width="120" height="40" as="geometry"/>
                </mxCell>
                <mxCell id="31" value="Output file" style="rounded=1;whiteSpace=wrap;html=1;fillColor=#e2e3e5;strokeColor=#333;strokeWidth=1;" parent="1" vertex="1">
                    <mxGeometry x="1190" y="350" width="120" height="40" as="geometry"/>
                </mxCell>
                <mxCell id="6" value="Paths" style="rounded=1;whiteSpace=wrap;html=1;fillColor=#bfb;strokeColor=#333;strokeWidth=1;" parent="1" vertex="1">
                    <mxGeometry x="10" y="460" width="100" height="40" as="geometry"/>
                </mxCell>
                <mxCell id="7" value="Methods" style="rounded=1;whiteSpace=wrap;html=1;fillColor=#bfb;strokeColor=#333;strokeWidth=1;" parent="1" vertex="1">
                    <mxGeometry x="130" y="460" width="100" height="40" as="geometry"/>
                </mxCell>
                <mxCell id="8" value="Security" style="rounded=1;whiteSpace=wrap;html=1;fillColor=#bfb;strokeColor=#333;strokeWidth=1;" parent="1" vertex="1">
                    <mxGeometry x="240" y="460" width="100" height="40" as="geometry"/>
                </mxCell>
                <mxCell id="9" value="Parameters" style="rounded=1;whiteSpace=wrap;html=1;fillColor=#bfb;strokeColor=#333;strokeWidth=1;" parent="1" vertex="1">
                    <mxGeometry x="350" y="460" width="100" height="40" as="geometry"/>
                </mxCell>
                <mxCell id="10" value="Iterate over doc.Paths.Map()" style="dashed=1;rounded=1;whiteSpace=wrap;html=1;" parent="1" vertex="1">
                    <mxGeometry x="-110" y="545" width="160" height="40" as="geometry"/>
                </mxCell>
                <mxCell id="11" value="Iterate over pathItem.Operations()" style="dashed=1;rounded=1;whiteSpace=wrap;html=1;" parent="1" vertex="1">
                    <mxGeometry x="90" y="545" width="180" height="40" as="geometry"/>
                </mxCell>
                <mxCell id="12" value="Iterate over op.Parameters" style="dashed=1;rounded=1;whiteSpace=wrap;html=1;" parent="1" vertex="1">
                    <mxGeometry x="320" y="530" width="160" height="40" as="geometry"/>
                </mxCell>
                <mxCell id="13" style="edgeStyle=orthogonalEdgeStyle;rounded=0;orthogonalLoop=1;jettySize=auto;html=1;exitX=0.5;exitY=1;exitDx=0;exitDy=0;entryX=0.5;entryY=0;entryDx=0;entryDy=0;" parent="1" source="2" target="3" edge="1">
                    <mxGeometry relative="1" as="geometry"/>
                </mxCell>
                <mxCell id="14" style="edgeStyle=orthogonalEdgeStyle;rounded=0;orthogonalLoop=1;jettySize=auto;html=1;exitX=0.5;exitY=1;exitDx=0;exitDy=0;entryX=0.5;entryY=0;entryDx=0;entryDy=0;" parent="1" source="3" target="4" edge="1">
                    <mxGeometry relative="1" as="geometry"/>
                </mxCell>
                <mxCell id="15" style="edgeStyle=orthogonalEdgeStyle;rounded=0;orthogonalLoop=1;jettySize=auto;html=1;exitX=0.5;exitY=1;exitDx=0;exitDy=0;entryX=0.5;entryY=0;entryDx=0;entryDy=0;" parent="1" source="4" target="5" edge="1">
                    <mxGeometry relative="1" as="geometry"/>
                </mxCell>
                <mxCell id="25" style="edgeStyle=orthogonalEdgeStyle;rounded=0;orthogonalLoop=1;jettySize=auto;html=1;exitX=1;exitY=0.5;exitDx=0;exitDy=0;entryX=0;entryY=0.5;entryDx=0;entryDy=0;" parent="1" source="5" target="23" edge="1">
                    <mxGeometry relative="1" as="geometry"/>
                </mxCell>
                <mxCell id="32" style="edgeStyle=orthogonalEdgeStyle;rounded=0;orthogonalLoop=1;jettySize=auto;html=1;exitX=1;exitY=0.5;exitDx=0;exitDy=0;entryX=0;entryY=0.5;entryDx=0;entryDy=0;" parent="1" source="23" target="27" edge="1">
                    <mxGeometry relative="1" as="geometry"/>
                </mxCell>
                <mxCell id="33" style="edgeStyle=orthogonalEdgeStyle;rounded=0;orthogonalLoop=1;jettySize=auto;html=1;exitX=1;exitY=0.5;exitDx=0;exitDy=0;entryX=0;entryY=0.5;entryDx=0;entryDy=0;" parent="1" source="27" target="28" edge="1">
                    <mxGeometry relative="1" as="geometry"/>
                </mxCell>
                <mxCell id="34" style="edgeStyle=orthogonalEdgeStyle;rounded=0;orthogonalLoop=1;jettySize=auto;html=1;exitX=1;exitY=0.5;exitDx=0;exitDy=0;entryX=0;entryY=0.5;entryDx=0;entryDy=0;" parent="1" source="27" target="29" edge="1">
                    <mxGeometry relative="1" as="geometry"/>
                </mxCell>
                <mxCell id="35" style="edgeStyle=orthogonalEdgeStyle;rounded=0;orthogonalLoop=1;jettySize=auto;html=1;exitX=1;exitY=0.5;exitDx=0;exitDy=0;entryX=0;entryY=0.5;entryDx=0;entryDy=0;" parent="1" source="27" target="30" edge="1">
                    <mxGeometry relative="1" as="geometry"/>
                </mxCell>
                <mxCell id="36" style="edgeStyle=orthogonalEdgeStyle;rounded=0;orthogonalLoop=1;jettySize=auto;html=1;exitX=1;exitY=0.5;exitDx=0;exitDy=0;entryX=0;entryY=0.5;entryDx=0;entryDy=0;" parent="1" source="29" target="31" edge="1">
                    <mxGeometry relative="1" as="geometry"/>
                </mxCell>
                <mxCell id="37" style="edgeStyle=orthogonalEdgeStyle;rounded=0;orthogonalLoop=1;jettySize=auto;html=1;exitX=1;exitY=0.5;exitDx=0;exitDy=0;entryX=0;entryY=0.5;entryDx=0;entryDy=0;" parent="1" source="30" target="31" edge="1">
                    <mxGeometry relative="1" as="geometry"/>
                </mxCell>
                <mxCell id="16" style="edgeStyle=orthogonalEdgeStyle;rounded=0;orthogonalLoop=1;jettySize=auto;html=1;exitX=0.5;exitY=1;exitDx=0;exitDy=0;entryX=0.5;entryY=0;entryDx=0;entryDy=0;" parent="1" source="5" target="6" edge="1">
                    <mxGeometry relative="1" as="geometry"/>
                </mxCell>
                <mxCell id="17" style="edgeStyle=orthogonalEdgeStyle;rounded=0;orthogonalLoop=1;jettySize=auto;html=1;exitX=0.5;exitY=1;exitDx=0;exitDy=0;entryX=0.5;entryY=0;entryDx=0;entryDy=0;" parent="1" source="5" target="7" edge="1">
                    <mxGeometry relative="1" as="geometry"/>
                </mxCell>
                <mxCell id="18" style="edgeStyle=orthogonalEdgeStyle;rounded=0;orthogonalLoop=1;jettySize=auto;html=1;exitX=0.5;exitY=1;exitDx=0;exitDy=0;entryX=0.5;entryY=0;entryDx=0;entryDy=0;" parent="1" source="5" target="8" edge="1">
                    <mxGeometry relative="1" as="geometry"/>
                </mxCell>
                <mxCell id="19" style="edgeStyle=orthogonalEdgeStyle;rounded=0;orthogonalLoop=1;jettySize=auto;html=1;exitX=0.5;exitY=1;exitDx=0;exitDy=0;entryX=0.5;entryY=0;entryDx=0;entryDy=0;" parent="1" source="5" target="9" edge="1">
                    <mxGeometry relative="1" as="geometry"/>
                </mxCell>
                <mxCell id="20" style="edgeStyle=orthogonalEdgeStyle;rounded=0;orthogonalLoop=1;jettySize=auto;html=1;dashed=1;" parent="1" source="6" target="10" edge="1">
                    <mxGeometry relative="1" as="geometry"/>
                </mxCell>
                <mxCell id="21" style="edgeStyle=orthogonalEdgeStyle;rounded=0;orthogonalLoop=1;jettySize=auto;html=1;dashed=1;" parent="1" source="7" target="11" edge="1">
                    <mxGeometry relative="1" as="geometry"/>
                </mxCell>
                <mxCell id="22" style="edgeStyle=orthogonalEdgeStyle;rounded=0;orthogonalLoop=1;jettySize=auto;html=1;dashed=1;" parent="1" source="9" target="12" edge="1">
                    <mxGeometry relative="1" as="geometry"/>
                </mxCell>
            </root>
        </mxGraphModel>
    </diagram>
</mxfile>